<?xml version="1.0" standalone="no"?>
<!DOCTYPE svg PUBLIC "-//W3C//DTD SVG 20010904//EN"
 "http://www.w3.org/TR/2001/REC-SVG-20010904/DTD/svg10.dtd">
<svg version="1.0" xmlns="http://www.w3.org/2000/svg"
 width="862.000000pt" height="760.000000pt" viewBox="0 0 862.000000 760.000000"
 preserveAspectRatio="xMidYMid meet">
<metadata>
Created by potrace 1.16, written by Peter Selinger 2001-2019
</metadata>
<g transform="translate(0.000000,760.000000) scale(0.100000,-0.100000)"
fill="#000000" stroke="none">
<path d="M4882 7199 c7 -21 25 -38 60 -57 68 -36 96 -62 103 -93 5 -22 0 -31
-34 -58 -68 -54 -62 -130 16 -184 44 -30 60 -57 69 -116 6 -34 2 -45 -30 -87
-38 -49 -44 -79 -24 -117 20 -39 23 -44 41 -70 l18 -25 -55 -78 c-31 -42 -56
-85 -56 -95 0 -19 22 -43 78 -86 39 -31 36 -48 -19 -112 -40 -45 -47 -68 -29
-100 8 -16 -3 -26 -74 -69 -59 -36 -108 -78 -165 -139 -92 -100 -141 -188
-171 -306 -36 -143 -113 -707 -98 -722 15 -16 28 27 37 130 15 158 57 437 83
550 24 107 73 215 125 275 91 106 126 138 200 182 71 43 91 50 216 73 76 14
165 25 198 25 161 0 407 -139 425 -240 l6 -35 -29 35 c-99 122 -165 162 -296
180 -252 33 -411 -7 -549 -138 -66 -63 -156 -207 -187 -298 -27 -81 -77 -351
-90 -494 -6 -63 -14 -136 -17 -162 -5 -40 -3 -48 10 -48 9 0 16 2 16 4 0 48
37 346 55 447 35 193 64 283 120 379 90 154 217 255 349 279 132 24 320 9 414
-34 55 -25 129 -97 166 -161 36 -62 66 -56 66 14 0 65 -31 112 -117 175 l-71
53 29 13 c33 14 38 49 14 91 -20 34 -19 114 1 134 9 10 33 16 59 16 101 0 122
28 100 132 -22 107 -21 112 28 141 24 14 57 29 73 33 49 11 64 32 64 85 0 40
-6 57 -35 95 -47 61 -44 114 6 114 9 0 47 9 83 20 82 26 96 46 67 96 -12 19
-21 51 -21 69 0 42 24 57 118 75 72 15 114 41 95 61 -9 9 -15 8 -27 -4 -9 -9
-42 -21 -74 -27 -111 -22 -130 -36 -142 -102 -7 -36 -5 -47 17 -75 14 -17 22
-36 19 -41 -3 -6 -46 -20 -96 -32 -61 -15 -94 -28 -100 -41 -19 -35 -11 -76
26 -124 29 -39 35 -53 32 -88 -3 -39 -5 -42 -46 -53 -23 -7 -61 -26 -85 -41
-50 -34 -56 -63 -33 -161 8 -35 12 -70 10 -77 -7 -16 -37 -25 -90 -25 -64 0
-87 -24 -92 -97 -3 -42 1 -69 12 -91 22 -42 20 -49 -12 -66 -25 -13 -34 -12
-102 11 -108 37 -197 40 -355 10 -71 -14 -131 -24 -132 -23 -2 2 -5 16 -9 32
-5 24 1 37 35 75 64 74 64 90 -5 153 l-58 54 27 39 c14 21 40 58 56 82 17 24
31 50 31 57 0 8 -16 36 -35 63 -45 62 -45 88 1 132 35 33 36 35 30 93 -6 58
-40 136 -60 136 -16 1 -51 32 -65 59 -18 33 -6 65 34 92 40 28 49 47 40 89 -7
33 -47 71 -106 101 -21 10 -46 30 -55 44 -24 37 -46 33 -32 -6z"/>
<path d="M2405 4654 c-103 -69 -114 -101 -60 -189 19 -33 34 -67 33 -75 -2 -8
-31 -28 -65 -45 -61 -30 -92 -57 -93 -83 0 -8 16 -40 36 -73 20 -32 34 -65 31
-73 -3 -8 -27 -29 -54 -47 -71 -47 -103 -80 -103 -105 0 -12 16 -48 35 -80 20
-33 34 -68 33 -79 -2 -11 -25 -35 -53 -53 -85 -56 -115 -82 -115 -102 0 -17
-9 -14 -64 24 -73 50 -187 97 -314 128 -106 27 -262 29 -370 5 -67 -15 -219
-78 -396 -163 -38 -19 -71 -34 -73 -34 -12 0 2 42 34 100 35 66 36 69 22 107
-12 33 -24 43 -86 73 -103 50 -108 63 -55 160 37 69 41 82 31 107 -18 47 -39
63 -84 63 -22 0 -49 6 -59 13 -16 12 -17 18 -7 50 7 19 25 54 42 76 32 45 35
58 15 83 -17 23 -50 35 -122 43 -49 7 -64 13 -91 41 -28 30 -53 44 -53 29 0
-3 10 -21 23 -40 23 -37 42 -45 149 -65 80 -16 86 -27 44 -88 -18 -28 -37 -67
-41 -88 -6 -34 -4 -41 20 -61 19 -16 39 -23 70 -23 39 0 46 -4 59 -28 13 -26
13 -32 -1 -58 -46 -83 -63 -119 -63 -134 0 -28 24 -70 45 -76 63 -20 124 -57
134 -82 10 -25 7 -36 -24 -97 -25 -47 -35 -79 -32 -98 3 -24 -3 -34 -36 -60
-22 -18 -60 -61 -85 -97 -25 -36 -66 -87 -90 -115 -48 -54 -119 -177 -140
-240 -7 -22 -20 -139 -29 -260 -8 -121 -17 -250 -20 -287 -5 -79 9 -119 83
-223 28 -39 58 -91 68 -117 22 -58 49 -94 88 -114 38 -20 45 -12 29 31 -10 30
-10 44 4 93 9 31 21 59 25 62 4 3 1 43 -7 90 -23 131 -13 267 30 420 20 69 44
146 55 170 31 74 178 285 228 329 91 80 221 153 338 190 106 33 118 35 256 35
227 0 293 -16 463 -110 27 -15 90 -68 141 -118 72 -70 95 -101 105 -133 7 -26
18 -43 26 -43 8 0 15 6 15 13 -1 25 -42 103 -72 134 -23 24 -31 42 -34 79 -5
64 -33 117 -104 198 -77 86 -77 107 -5 152 28 18 65 44 84 60 29 24 32 32 27
63 -3 19 -19 57 -36 84 -17 28 -30 57 -28 65 2 9 36 39 75 67 99 68 101 84 32
192 -25 40 -12 66 42 82 21 6 52 23 69 38 27 22 31 31 26 57 -4 17 -20 53 -37
80 -42 68 -35 86 51 142 39 25 70 47 70 49 0 14 -51 1 -85 -21z"/>
<path d="M5010 4330 c-77 -83 -45 -169 101 -265 87 -57 136 -67 339 -69 153
-1 156 -1 210 28 93 49 138 84 180 144 36 49 40 62 35 92 -8 44 -22 60 -50 60
-26 0 -118 -37 -199 -79 -48 -26 -69 -31 -125 -31 -127 1 -238 36 -349 112
-23 16 -58 32 -77 35 -30 5 -39 1 -65 -27z"/>
<path d="M1466 3429 c-70 -10 -133 -38 -246 -109 -153 -96 -270 -201 -324
-290 -51 -84 -134 -277 -156 -365 -27 -107 -25 -332 4 -322 7 3 10 40 7 118
-4 138 16 226 90 392 86 193 132 253 277 361 93 69 253 162 302 176 61 17 231
23 338 11 180 -19 318 -86 435 -210 52 -54 87 -76 87 -53 0 17 -140 151 -185
177 -28 16 -57 34 -65 41 -8 6 -47 23 -86 37 -116 41 -330 58 -478 36z"/>
<path d="M4755 733 c-27 -2 -65 -5 -82 -8 l-33 -6 0 -98 0 -98 -97 -6 c-54 -4
-115 -7 -135 -7 l-38 0 0 99 0 98 -46 7 c-26 3 -81 6 -124 6 l-77 0 -27 -166
c-30 -187 -70 -349 -114 -471 l-31 -83 104 0 104 0 3 67 3 68 158 3 157 3 0
-71 0 -70 195 0 195 0 0 28 c0 15 -7 117 -15 227 -8 110 -15 264 -15 343 0
129 -2 142 -17 140 -10 -1 -40 -3 -68 -5z"/>
</g>
</svg>
